<svg width="556" height="493" viewBox="0 0 556 493" fill="none" xmlns="http://www.w3.org/2000/svg">
<path d="M469.3 10H86.0999C44.0999 10 10 44.1 10 86.1V250.6H545.5V86.1C545.5 44 511.4 10 469.3 10Z" fill="#E5DED6"/>
<path d="M545.5 260.6H10C4.5 260.6 0 256.1 0 250.6V86.1C0 38.6 38.5999 0 86.0999 0H469.3C516.8 0 555.4 38.6 555.4 86.1V250.6C555.5 256.1 551 260.6 545.5 260.6ZM20 240.6H535.5V86.1C535.5 49.6 505.8 20 469.4 20H86.2C49.7 20 20.1 49.7 20.1 86.1V240.6H20Z" fill="black"/>
<path d="M113.799 138.898V78.8984H63.5992V138.898C63.5992 160.098 54.8993 180.498 38.9993 194.598C30.7993 201.898 25.6992 212.498 25.6992 224.298V442.898C25.6992 456.598 36.7993 467.698 50.4993 467.698H126.999C140.699 467.698 151.799 456.598 151.799 442.898V224.298C151.799 212.498 146.599 201.898 138.499 194.598C122.599 180.498 113.799 160.098 113.799 138.898Z" fill="#E8AE4C"/>
<path d="M126.999 477.699H50.4993C31.2993 477.699 15.6992 462.099 15.6992 442.899V224.299C15.6992 210.099 21.7992 196.599 32.3992 187.099C45.8992 175.099 53.5992 157.499 53.5992 138.799V78.7988C53.5992 73.2988 58.0992 68.7988 63.5992 68.7988H113.799C119.299 68.7988 123.799 73.2988 123.799 78.7988V138.799C123.799 157.499 131.499 175.099 144.999 187.099C155.599 196.499 161.699 210.099 161.699 224.299V442.899C161.699 462.099 146.099 477.699 126.999 477.699ZM73.6992 88.8988V138.899C73.6992 163.299 63.4992 186.299 45.7992 202.099C39.4992 207.699 35.7992 215.799 35.7992 224.299V442.899C35.7992 450.999 42.3992 457.699 50.5992 457.699H127.099C135.199 457.699 141.899 451.099 141.899 442.899V224.299C141.899 215.799 138.299 207.699 131.899 202.099C114.099 186.299 103.999 163.299 103.999 138.899V88.8988H73.6992Z" fill="black"/>
<path d="M109.198 83.7992H68.3976C61.3976 83.7992 55.5977 77.9992 55.5977 70.9992C55.5977 63.9992 61.3976 58.1992 68.3976 58.1992H109.198C116.198 58.1992 121.998 63.9992 121.998 70.9992C121.998 77.9992 116.198 83.7992 109.198 83.7992Z" fill="#E8AE4C"/>
<path d="M109.198 93.7992H68.3976C55.7976 93.7992 45.5977 83.5992 45.5977 70.9992C45.5977 58.3992 55.7976 48.1992 68.3976 48.1992H109.198C121.798 48.1992 131.998 58.3992 131.998 70.9992C131.998 83.5992 121.698 93.7992 109.198 93.7992ZM68.2976 68.1992C66.7976 68.1992 65.4977 69.4992 65.4977 70.9992C65.4977 72.4992 66.7976 73.7992 68.2976 73.7992H109.098C110.598 73.7992 111.898 72.4992 111.898 70.9992C111.898 69.4992 110.598 68.1992 109.098 68.1992H68.2976Z" fill="black"/>
<path d="M88.7 421.4C70.4 421.4 55.5 406.5 55.5 388.2V263.3C55.5 245 70.4 230.1 88.7 230.1C107 230.1 121.9 245 121.9 263.3V388.1C122 406.4 107 421.4 88.7 421.4Z" fill="#E5DED6"/>
<path d="M88.7 431.4C64.9 431.4 45.5 412 45.5 388.2V263.3C45.5 239.5 64.9 220.1 88.7 220.1C112.5 220.1 131.9 239.5 131.9 263.3V388.1C132 412 112.6 431.4 88.7 431.4ZM88.7 240.1C75.9 240.1 65.5 250.5 65.5 263.3V388.1C65.5 400.9 75.9 411.3 88.7 411.3C101.5 411.3 111.9 400.9 111.9 388.1V263.3C112 250.5 101.5 240.1 88.7 240.1Z" fill="black"/>
<path d="M239.799 138.898V78.8984H189.599V138.898C189.599 160.098 180.899 180.498 164.999 194.598C156.799 201.898 151.699 212.498 151.699 224.298V442.898C151.699 456.598 162.799 467.698 176.499 467.698H252.999C266.699 467.698 277.799 456.598 277.799 442.898V224.298C277.799 212.498 272.599 201.898 264.499 194.598C248.599 180.498 239.799 160.098 239.799 138.898Z" fill="#E8AE4C"/>
<path d="M252.999 477.699H176.499C157.299 477.699 141.699 462.099 141.699 442.899V224.299C141.699 210.099 147.799 196.599 158.399 187.099C171.899 175.099 179.599 157.499 179.599 138.799V78.7988C179.599 73.2988 184.099 68.7988 189.599 68.7988H239.799C245.299 68.7988 249.799 73.2988 249.799 78.7988V138.799C249.799 157.499 257.499 175.099 270.999 187.099C281.599 196.499 287.699 210.099 287.699 224.299V442.899C287.699 462.099 272.099 477.699 252.999 477.699ZM199.699 88.8988V138.899C199.699 163.299 189.499 186.299 171.799 202.099C165.499 207.699 161.799 215.799 161.799 224.299V442.899C161.799 450.999 168.399 457.699 176.599 457.699H253.099C261.199 457.699 267.899 451.099 267.899 442.899V224.299C267.899 215.799 264.299 207.699 257.899 202.099C240.099 186.299 229.999 163.299 229.999 138.899V88.8988H199.699Z" fill="black"/>
<path d="M235.198 83.7992H194.398C187.398 83.7992 181.598 77.9992 181.598 70.9992C181.598 63.9992 187.398 58.1992 194.398 58.1992H235.198C242.198 58.1992 247.998 63.9992 247.998 70.9992C247.998 77.9992 242.198 83.7992 235.198 83.7992Z" fill="#E8AE4C"/>
<path d="M235.198 93.7992H194.398C181.798 93.7992 171.598 83.5992 171.598 70.9992C171.598 58.3992 181.798 48.1992 194.398 48.1992H235.198C247.798 48.1992 257.998 58.3992 257.998 70.9992C257.998 83.5992 247.698 93.7992 235.198 93.7992ZM194.298 68.1992C192.798 68.1992 191.498 69.4992 191.498 70.9992C191.498 72.4992 192.798 73.7992 194.298 73.7992H235.098C236.598 73.7992 237.898 72.4992 237.898 70.9992C237.898 69.4992 236.598 68.1992 235.098 68.1992H194.298Z" fill="black"/>
<path d="M214.7 421.4C196.4 421.4 181.5 406.5 181.5 388.2V263.3C181.5 245 196.4 230.1 214.7 230.1C233 230.1 247.9 245 247.9 263.3V388.1C248 406.4 233 421.4 214.7 421.4Z" fill="#E5DED6"/>
<path d="M214.7 431.4C190.9 431.4 171.5 412 171.5 388.2V263.3C171.5 239.5 190.9 220.1 214.7 220.1C238.5 220.1 257.9 239.5 257.9 263.3V388.1C258 412 238.6 431.4 214.7 431.4ZM214.7 240.1C201.9 240.1 191.5 250.5 191.5 263.3V388.1C191.5 400.9 201.9 411.3 214.7 411.3C227.5 411.3 237.9 400.9 237.9 388.1V263.3C238 250.5 227.5 240.1 214.7 240.1Z" fill="black"/>
<path d="M365.799 138.898V78.8984H315.599V138.898C315.599 160.098 306.899 180.498 290.999 194.598C282.799 201.898 277.699 212.498 277.699 224.298V442.898C277.699 456.598 288.799 467.698 302.499 467.698H378.999C392.699 467.698 403.799 456.598 403.799 442.898V224.298C403.799 212.498 398.599 201.898 390.499 194.598C374.599 180.498 365.799 160.098 365.799 138.898Z" fill="#E8AE4C"/>
<path d="M378.999 477.699H302.499C283.299 477.699 267.699 462.099 267.699 442.899V224.299C267.699 210.099 273.799 196.599 284.399 187.099C297.899 175.099 305.599 157.499 305.599 138.799V78.7988C305.599 73.2988 310.099 68.7988 315.599 68.7988H365.799C371.299 68.7988 375.799 73.2988 375.799 78.7988V138.799C375.799 157.499 383.499 175.099 396.999 187.099C407.599 196.499 413.699 210.099 413.699 224.299V442.899C413.699 462.099 398.099 477.699 378.999 477.699ZM325.699 88.8988V138.899C325.699 163.299 315.499 186.299 297.799 202.099C291.499 207.699 287.799 215.799 287.799 224.299V442.899C287.799 450.999 294.399 457.699 302.599 457.699H379.099C387.199 457.699 393.899 451.099 393.899 442.899V224.299C393.899 215.799 390.299 207.699 383.899 202.099C366.099 186.299 355.999 163.299 355.999 138.899V88.8988H325.699Z" fill="black"/>
<path d="M361.198 83.7992H320.398C313.398 83.7992 307.598 77.9992 307.598 70.9992C307.598 63.9992 313.398 58.1992 320.398 58.1992H361.198C368.198 58.1992 373.998 63.9992 373.998 70.9992C373.998 77.9992 368.198 83.7992 361.198 83.7992Z" fill="#E8AE4C"/>
<path d="M361.198 93.7992H320.398C307.798 93.7992 297.598 83.5992 297.598 70.9992C297.598 58.3992 307.798 48.1992 320.398 48.1992H361.198C373.798 48.1992 383.998 58.3992 383.998 70.9992C383.998 83.5992 373.698 93.7992 361.198 93.7992ZM320.298 68.1992C318.798 68.1992 317.498 69.4992 317.498 70.9992C317.498 72.4992 318.798 73.7992 320.298 73.7992H361.098C362.598 73.7992 363.898 72.4992 363.898 70.9992C363.898 69.4992 362.598 68.1992 361.098 68.1992H320.298Z" fill="black"/>
<path d="M340.7 421.4C322.4 421.4 307.5 406.5 307.5 388.2V263.3C307.5 245 322.4 230.1 340.7 230.1C359 230.1 373.9 245 373.9 263.3V388.1C374 406.4 359 421.4 340.7 421.4Z" fill="#E5DED6"/>
<path d="M340.7 431.4C316.9 431.4 297.5 412 297.5 388.2V263.3C297.5 239.5 316.9 220.1 340.7 220.1C364.5 220.1 383.9 239.5 383.9 263.3V388.1C384 412 364.6 431.4 340.7 431.4ZM340.7 240.1C327.9 240.1 317.5 250.5 317.5 263.3V388.1C317.5 400.9 327.9 411.3 340.7 411.3C353.5 411.3 363.9 400.9 363.9 388.1V263.3C364 250.5 353.5 240.1 340.7 240.1Z" fill="black"/>
<path d="M491.799 138.898V78.8984H441.599V138.898C441.599 160.098 432.899 180.498 416.999 194.598C408.799 201.898 403.699 212.498 403.699 224.298V442.898C403.699 456.598 414.799 467.698 428.499 467.698H504.999C518.699 467.698 529.799 456.598 529.799 442.898V224.298C529.799 212.498 524.599 201.898 516.499 194.598C500.599 180.498 491.799 160.098 491.799 138.898Z" fill="#E8AE4C"/>
<path d="M504.999 477.699H428.499C409.299 477.699 393.699 462.099 393.699 442.899V224.299C393.699 210.099 399.799 196.599 410.399 187.099C423.899 175.099 431.599 157.499 431.599 138.799V78.7988C431.599 73.2988 436.099 68.7988 441.599 68.7988H491.799C497.299 68.7988 501.799 73.2988 501.799 78.7988V138.799C501.799 157.499 509.499 175.099 522.999 187.099C533.599 196.499 539.699 210.099 539.699 224.299V442.899C539.699 462.099 524.099 477.699 504.999 477.699ZM451.699 88.8988V138.899C451.699 163.299 441.499 186.299 423.799 202.099C417.499 207.699 413.799 215.799 413.799 224.299V442.899C413.799 450.999 420.399 457.699 428.599 457.699H505.099C513.199 457.699 519.899 451.099 519.899 442.899V224.299C519.899 215.799 516.299 207.699 509.899 202.099C492.099 186.299 481.999 163.299 481.999 138.899V88.8988H451.699Z" fill="black"/>
<path d="M487.198 83.7992H446.398C439.398 83.7992 433.598 77.9992 433.598 70.9992C433.598 63.9992 439.398 58.1992 446.398 58.1992H487.198C494.198 58.1992 499.998 63.9992 499.998 70.9992C499.998 77.9992 494.198 83.7992 487.198 83.7992Z" fill="#E8AE4C"/>
<path d="M487.198 93.7992H446.398C433.798 93.7992 423.598 83.5992 423.598 70.9992C423.598 58.3992 433.798 48.1992 446.398 48.1992H487.198C499.798 48.1992 509.998 58.3992 509.998 70.9992C509.998 83.5992 499.698 93.7992 487.198 93.7992ZM446.298 68.1992C444.798 68.1992 443.498 69.4992 443.498 70.9992C443.498 72.4992 444.798 73.7992 446.298 73.7992H487.098C488.598 73.7992 489.898 72.4992 489.898 70.9992C489.898 69.4992 488.598 68.1992 487.098 68.1992H446.298Z" fill="black"/>
<path d="M466.7 421.4C448.4 421.4 433.5 406.5 433.5 388.2V263.3C433.5 245 448.4 230.1 466.7 230.1C485 230.1 499.9 245 499.9 263.3V388.1C500 406.4 485 421.4 466.7 421.4Z" fill="#E5DED6"/>
<path d="M466.7 431.4C442.9 431.4 423.5 412 423.5 388.2V263.3C423.5 239.5 442.9 220.1 466.7 220.1C490.5 220.1 509.9 239.5 509.9 263.3V388.1C510 412 490.6 431.4 466.7 431.4ZM466.7 240.1C453.9 240.1 443.5 250.5 443.5 263.3V388.1C443.5 400.9 453.9 411.3 466.7 411.3C479.5 411.3 489.9 400.9 489.9 388.1V263.3C490 250.5 479.5 240.1 466.7 240.1Z" fill="black"/>
<path d="M545.5 242.201H10V482.201H545.5V242.201Z" fill="#E5DED6"/>
<path d="M545.5 492.301H10C4.5 492.301 0 487.801 0 482.301V242.301C0 236.801 4.5 232.301 10 232.301H545.5C551 232.301 555.5 236.801 555.5 242.301V482.301C555.5 487.801 551 492.301 545.5 492.301ZM20 472.301H535.5V252.301H20V472.301Z" fill="black"/>
</svg>
