<svg width="1136" height="1136" viewBox="0 0 1136 1136" fill="none" xmlns="http://www.w3.org/2000/svg">
<path d="M798.752 355C798.659 296.923 776.685 241.014 737.208 198.416C697.732 155.818 643.654 129.66 585.752 125.155V35.5H550.252V125.155C505.526 128.628 462.784 145.069 427.259 172.465C391.735 199.86 364.971 237.021 350.245 279.396C335.519 321.77 333.471 367.52 344.35 411.041C355.23 454.563 378.565 493.967 411.498 524.428C444.432 554.889 485.533 575.084 529.77 582.541C574.006 589.998 619.457 584.393 660.557 566.411C701.656 548.43 736.619 518.853 761.165 481.303C785.71 443.754 798.773 399.861 798.752 355ZM374.953 327.31C389.996 316.808 405.883 307.57 422.452 299.691C421.032 312.116 420.162 324.701 419.718 337.25H373.657C373.959 333.895 374.527 330.612 374.953 327.31ZM373.657 372.75H419.683C420.127 385.299 420.996 397.831 422.416 410.309C405.86 402.428 389.985 393.19 374.953 382.69C374.527 379.388 373.959 376.105 373.657 372.75ZM389.242 433.26C402.126 440.281 415.414 446.534 429.037 451.986C432.613 469.746 437.176 487.292 442.705 504.544C419.653 485.197 401.36 460.807 389.242 433.26ZM429.037 258.014C415.411 263.459 402.122 269.712 389.242 276.74C401.36 249.193 419.653 224.803 442.705 205.456C437.182 222.71 432.619 240.256 429.037 258.014ZM550.252 549.345C530.201 547.58 510.551 542.686 492.014 534.843C482.266 512.269 474.371 488.94 468.407 465.085C495.127 472.416 522.575 476.774 550.252 478.079V549.345ZM550.252 442.614C519.638 441.085 489.371 435.418 460.277 425.769C457.538 408.211 455.831 390.508 455.165 372.75H550.252V442.614ZM550.252 337.25H455.165C455.831 319.492 457.538 301.789 460.277 284.231C489.371 274.582 519.638 268.915 550.252 267.386V337.25ZM550.252 231.921C522.576 233.219 495.127 237.571 468.407 244.897C474.371 221.048 482.266 197.725 492.014 175.157C510.551 167.314 530.201 162.42 550.252 160.655V231.921ZM761.051 382.69C746.008 393.192 730.12 402.43 713.552 410.309C714.972 397.884 715.842 385.299 716.285 372.75H762.311C762.045 376.105 761.477 379.388 761.051 382.69ZM762.347 337.25H716.321C715.877 324.701 715.007 312.169 713.587 299.691C730.144 307.572 746.019 316.81 761.051 327.31C761.477 330.612 762.045 333.895 762.347 337.25ZM746.762 276.74C733.881 269.712 720.593 263.459 706.967 258.014C703.384 240.256 698.822 222.71 693.299 205.456C716.355 224.799 734.649 249.19 746.762 276.74ZM585.752 160.655C605.802 162.42 625.453 167.314 643.99 175.157C653.738 197.725 661.633 221.048 667.597 244.897C640.876 237.571 613.428 233.219 585.752 231.921V160.655ZM643.99 534.843C625.453 542.686 605.802 547.58 585.752 549.345V478.079C613.429 476.774 640.877 472.416 667.597 465.085C661.633 488.94 653.738 512.269 643.99 534.843ZM675.727 425.769C646.632 435.418 616.366 441.085 585.752 442.614V372.75H680.839C680.172 390.508 678.466 408.211 675.727 425.769ZM585.752 337.25V267.386C616.366 268.915 646.632 274.582 675.727 284.231C678.466 301.789 680.172 319.492 680.839 337.25H585.752ZM693.299 504.544C698.828 487.292 703.391 469.746 706.967 451.986C720.589 446.534 733.878 440.281 746.762 433.26C734.644 460.807 716.351 485.197 693.299 504.544Z" fill="#E54047"/>
<path d="M1082.75 479.25C1058.01 479.25 1037.11 446.732 1037.11 408.25C1037.11 403.542 1035.24 399.028 1031.92 395.699C1028.59 392.37 1024.07 390.5 1019.36 390.5C1014.66 390.5 1010.14 392.37 1006.81 395.699C1003.48 399.028 1001.61 403.542 1001.61 408.25C1001.61 446.732 980.704 479.25 955.961 479.25C951.253 479.25 946.739 481.12 943.41 484.449C940.081 487.778 938.211 492.292 938.211 497C938.211 501.708 940.081 506.222 943.41 509.551C946.739 512.88 951.253 514.75 955.961 514.75C980.704 514.75 1001.61 547.268 1001.61 585.75C1001.61 590.458 1003.48 594.972 1006.81 598.301C1010.14 601.63 1014.66 603.5 1019.36 603.5C1024.07 603.5 1028.59 601.63 1031.92 598.301C1035.24 594.972 1037.11 590.458 1037.11 585.75C1037.11 547.268 1058.01 514.75 1082.75 514.75C1087.46 514.75 1091.97 512.88 1095.3 509.551C1098.63 506.222 1100.5 501.708 1100.5 497C1100.5 492.292 1098.63 487.778 1095.3 484.449C1091.97 481.12 1087.46 479.25 1082.75 479.25ZM1019.36 518.531C1014.5 510.484 1008.45 503.224 1001.4 497C1008.45 490.776 1014.5 483.516 1019.36 475.469C1024.22 483.512 1030.27 490.771 1037.31 497C1030.27 503.229 1024.22 510.488 1019.36 518.531Z" fill="#EB7450"/>
<path d="M223.135 372.75C223.135 377.458 225.005 381.972 228.334 385.301C231.663 388.63 236.178 390.5 240.885 390.5C245.593 390.5 250.108 388.63 253.436 385.301C256.765 381.972 258.635 377.458 258.635 372.75C258.635 334.268 279.545 301.75 304.288 301.75C308.996 301.75 313.511 299.88 316.839 296.551C320.168 293.222 322.038 288.708 322.038 284C322.038 279.292 320.168 274.778 316.839 271.449C313.511 268.12 308.996 266.25 304.288 266.25C279.545 266.25 258.635 233.732 258.635 195.25C258.635 190.542 256.765 186.028 253.436 182.699C250.108 179.37 245.593 177.5 240.885 177.5C236.178 177.5 231.663 179.37 228.334 182.699C225.005 186.028 223.135 190.542 223.135 195.25C223.135 233.732 202.244 266.25 177.5 266.25C172.792 266.25 168.278 268.12 164.949 271.449C161.62 274.778 159.75 279.292 159.75 284C159.75 288.708 161.62 293.222 164.949 296.551C168.278 299.88 172.792 301.75 177.5 301.75C202.244 301.75 223.135 334.268 223.135 372.75ZM240.885 262.469C245.745 270.516 251.802 277.776 258.848 284C251.802 290.224 245.745 297.484 240.885 305.531C236.026 297.488 229.975 290.229 222.94 284C229.975 277.771 236.026 270.512 240.885 262.469Z" fill="#EB7450"/>
<path d="M106.5 781C144.982 781 177.5 829.777 177.5 887.5C177.5 892.208 179.37 896.722 182.699 900.051C186.028 903.38 190.542 905.25 195.25 905.25C199.958 905.25 204.472 903.38 207.801 900.051C211.13 896.722 213 892.208 213 887.5C213 829.777 245.518 781 284 781C288.708 781 293.222 779.13 296.551 775.801C299.88 772.472 301.75 767.958 301.75 763.25C301.75 758.542 299.88 754.028 296.551 750.699C293.222 747.37 288.708 745.5 284 745.5C245.518 745.5 213 696.723 213 639C213 634.292 211.13 629.778 207.801 626.449C204.472 623.12 199.958 621.25 195.25 621.25C190.542 621.25 186.028 623.12 182.699 626.449C179.37 629.778 177.5 634.292 177.5 639C177.5 696.723 144.982 745.5 106.5 745.5C101.792 745.5 97.2776 747.37 93.9489 750.699C90.6201 754.028 88.75 758.542 88.75 763.25C88.75 767.958 90.6201 772.472 93.9489 775.801C97.2776 779.13 101.792 781 106.5 781ZM195.25 717.419C203.906 735.41 216.675 751.111 232.525 763.25C216.675 775.389 203.906 791.09 195.25 809.081C186.594 791.09 173.825 775.389 157.975 763.25C173.825 751.111 186.594 735.41 195.25 717.419Z" fill="#EB7450"/>
<path d="M869.75 852C883.792 852 897.52 847.836 909.196 840.034C920.871 832.233 929.972 821.144 935.345 808.171C940.719 795.197 942.125 780.921 939.386 767.149C936.646 753.376 929.884 740.725 919.955 730.795C910.025 720.866 897.374 714.104 883.601 711.364C869.829 708.625 855.553 710.031 842.579 715.405C829.606 720.778 818.517 729.879 810.716 741.555C802.914 753.23 798.75 766.958 798.75 781C798.75 799.83 806.23 817.89 819.545 831.205C832.861 844.52 850.92 852 869.75 852ZM869.75 745.5C876.771 745.5 883.635 747.582 889.473 751.483C895.311 755.384 899.861 760.928 902.548 767.415C905.235 773.902 905.938 781.039 904.568 787.926C903.198 794.812 899.817 801.138 894.852 806.102C889.888 811.067 883.562 814.448 876.676 815.818C869.789 817.188 862.652 816.485 856.165 813.798C849.678 811.111 844.134 806.561 840.233 800.723C836.332 794.885 834.25 788.021 834.25 781C834.25 771.585 837.99 762.555 844.648 755.898C851.305 749.24 860.335 745.5 869.75 745.5Z" fill="#EB7450"/>
<path d="M390.5 692.25C390.5 702.782 393.623 713.077 399.474 721.834C405.325 730.591 413.642 737.416 423.372 741.447C433.102 745.477 443.809 746.531 454.139 744.477C464.468 742.422 473.956 737.351 481.403 729.903C488.851 722.456 493.922 712.968 495.977 702.639C498.031 692.309 496.977 681.602 492.947 671.872C488.916 662.142 482.091 653.825 473.334 647.974C464.577 642.123 454.282 639 443.75 639C429.627 639 416.083 644.61 406.097 654.597C396.11 664.583 390.5 678.127 390.5 692.25ZM461.5 692.25C461.5 695.761 460.459 699.192 458.509 702.111C456.558 705.03 453.786 707.305 450.543 708.649C447.299 709.992 443.73 710.344 440.287 709.659C436.844 708.974 433.681 707.284 431.199 704.801C428.716 702.319 427.026 699.156 426.341 695.713C425.656 692.27 426.008 688.701 427.351 685.457C428.695 682.214 430.97 679.442 433.889 677.491C436.808 675.541 440.239 674.5 443.75 674.5C448.458 674.5 452.972 676.37 456.301 679.699C459.63 683.028 461.5 687.542 461.5 692.25Z" fill="#EB7450"/>
<path d="M994 266.25C994 255.718 990.877 245.423 985.026 236.666C979.175 227.909 970.858 221.084 961.128 217.053C951.398 213.023 940.691 211.969 930.361 214.023C920.032 216.078 910.544 221.149 903.097 228.597C895.649 236.044 890.578 245.532 888.523 255.861C886.469 266.191 887.523 276.898 891.553 286.628C895.584 296.358 902.409 304.675 911.166 310.526C919.923 316.377 930.218 319.5 940.75 319.5C954.873 319.5 968.417 313.89 978.403 303.903C988.39 293.917 994 280.373 994 266.25ZM923 266.25C923 262.739 924.041 259.308 925.991 256.389C927.942 253.47 930.714 251.195 933.957 249.851C937.201 248.508 940.77 248.156 944.213 248.841C947.656 249.526 950.819 251.217 953.301 253.699C955.784 256.181 957.474 259.344 958.159 262.787C958.844 266.23 958.492 269.799 957.149 273.043C955.805 276.286 953.53 279.058 950.611 281.009C947.692 282.959 944.261 284 940.75 284C936.042 284 931.528 282.13 928.199 278.801C924.87 275.472 923 270.958 923 266.25Z" fill="#EB7450"/>
<path d="M142 550.25C142 539.718 138.877 529.423 133.026 520.666C127.175 511.909 118.858 505.084 109.128 501.053C99.3978 497.023 88.691 495.969 78.3615 498.023C68.032 500.078 58.5437 505.149 51.0966 512.597C43.6494 520.044 38.5779 529.532 36.5232 539.861C34.4685 550.191 35.5231 560.898 39.5534 570.628C43.5838 580.358 50.409 588.675 59.1659 594.526C67.9228 600.377 78.2182 603.5 88.75 603.5C102.873 603.5 116.417 597.89 126.403 587.903C136.39 577.917 142 564.373 142 550.25ZM88.75 568C85.2394 568 81.8076 566.959 78.8887 565.009C75.9697 563.058 73.6946 560.286 72.3512 557.043C71.0077 553.799 70.6562 550.23 71.3411 546.787C72.026 543.344 73.7165 540.181 76.1989 537.699C78.6813 535.216 81.844 533.526 85.2872 532.841C88.7303 532.156 92.2993 532.508 95.5427 533.851C98.786 535.195 101.558 537.47 103.509 540.389C105.459 543.308 106.5 546.739 106.5 550.25C106.5 554.958 104.63 559.472 101.301 562.801C97.9724 566.13 93.4576 568 88.75 568Z" fill="#EB7450"/>
<path d="M637.48 631.802L605.023 646.227L676.023 805.979L708.48 791.555L637.48 631.802Z" fill="#E54047"/>
<path d="M793.563 555.448L768.461 580.551L821.715 633.805L846.818 608.703L793.563 555.448Z" fill="#E54047"/>
<path d="M324.712 502.197L271.457 555.451L296.559 580.553L349.814 527.299L324.712 502.197Z" fill="#E54047"/>
<path d="M306.951 945.947L235.949 1016.95L261.052 1042.05L332.053 971.05L306.951 945.947Z" fill="#E54047"/>
<path d="M585.75 869.75H550.25V958.5H585.75V869.75Z" fill="#E54047"/>
<path d="M1044.27 753.402L1014.73 773.094L1050.23 826.35L1079.77 806.659L1044.27 753.402Z" fill="#E54047"/>
<path d="M674.5 1011.75C699.244 1011.75 720.135 1044.27 720.135 1082.75C720.135 1087.46 722.005 1091.97 725.334 1095.3C728.663 1098.63 733.178 1100.5 737.885 1100.5C742.593 1100.5 747.108 1098.63 750.436 1095.3C753.765 1091.97 755.635 1087.46 755.635 1082.75C755.635 1044.27 776.545 1011.75 801.288 1011.75C805.996 1011.75 810.511 1009.88 813.839 1006.55C817.168 1003.22 819.038 998.708 819.038 994C819.038 989.292 817.168 984.778 813.839 981.449C810.511 978.12 805.996 976.25 801.288 976.25C776.545 976.25 755.635 943.732 755.635 905.25C755.635 900.542 753.765 896.028 750.436 892.699C747.108 889.37 742.593 887.5 737.885 887.5C733.178 887.5 728.663 889.37 725.334 892.699C722.005 896.028 720.135 900.542 720.135 905.25C720.135 943.732 699.244 976.25 674.5 976.25C669.792 976.25 665.278 978.12 661.949 981.449C658.62 984.778 656.75 989.292 656.75 994C656.75 998.708 658.62 1003.22 661.949 1006.55C665.278 1009.88 669.792 1011.75 674.5 1011.75ZM737.885 972.469C742.745 980.516 748.802 987.776 755.848 994C748.802 1000.22 742.745 1007.48 737.885 1015.53C733.026 1007.49 726.975 1000.23 719.94 994C726.975 987.771 733.026 980.512 737.885 972.469Z" fill="#EB7450"/>
</svg>
