<svg width="326" height="573" viewBox="0 0 326 573" fill="none" xmlns="http://www.w3.org/2000/svg">
<path d="M173.701 512.8V290.1H152.001V512.8C101.701 515.5 62.6016 536.8 62.6016 562.6H263.102C263.102 536.8 224.001 515.5 173.701 512.8Z" fill="white"/>
<path d="M263.102 572.699H62.6016C57.1016 572.699 52.6016 568.199 52.6016 562.699C52.6016 532.899 89.7015 508.799 142.001 503.599V290.199C142.001 284.699 146.501 280.199 152.001 280.199H173.701C179.201 280.199 183.701 284.699 183.701 290.199V503.599C236.101 508.799 273.102 532.899 273.102 562.699C273.102 568.199 268.602 572.699 263.102 572.699ZM75.9016 552.699H249.902C240.802 538.599 213.201 524.999 173.201 522.899C167.901 522.599 163.701 518.199 163.701 512.899V300.199H162.001V512.899C162.001 518.199 157.801 522.599 152.501 522.899C112.601 524.999 85.0016 538.499 75.9016 552.699Z" fill="black"/>
<path d="M162.8 344.4C243.6 344.4 309.2 278.9 309.2 198H16.5C16.5 278.8 82 344.4 162.8 344.4Z" fill="#E54047"/>
<path d="M162.798 354.4C76.5983 354.4 6.39844 284.3 6.39844 198C6.39844 192.5 10.8984 188 16.3984 188H309.098C314.598 188 319.098 192.5 319.098 198C319.198 284.2 249.098 354.4 162.798 354.4ZM26.7983 208C31.8983 278.5 90.9983 334.4 162.798 334.4C234.598 334.4 293.698 278.6 298.798 208H26.7983Z" fill="black"/>
<path d="M40.0984 118.199C25.0984 141.199 16.3984 168.599 16.3984 197.999H309.098C309.098 168.599 300.398 141.099 285.398 118.199H40.0984Z" fill="white"/>
<path d="M309.2 207.999H16.5C11 207.999 6.5 203.499 6.5 197.999C6.5 167.599 15.2 138.099 31.8 112.699C33.6 109.899 36.8 108.199 40.2 108.199H285.6C289 108.199 292.1 109.899 294 112.699C310.5 138.099 319.3 167.599 319.3 197.999C319.2 203.499 314.7 207.999 309.2 207.999ZM26.8 187.999H298.8C297.3 166.799 290.8 146.399 280 128.199H45.7C34.8 146.399 28.4 166.799 26.8 187.999Z" fill="black"/>
<path d="M298.201 60.0004C295.401 35.4004 274.502 16.2004 249.102 16.2004C229.902 16.2004 213.401 27.1004 205.201 43.0004C198.901 27.3004 183.501 16.2004 165.501 16.2004C150.901 16.2004 138.102 23.5005 130.302 34.6005C121.802 19.9005 105.901 9.90039 87.7014 9.90039C62.6014 9.90039 41.9015 28.8005 39.0015 53.1005C22.1015 60.2005 10.1016 76.9004 10.1016 96.3004C10.1016 113.6 19.7015 128.9 33.8015 136.9V212.7C33.8015 220.7 40.4016 227.3 48.4016 227.3C56.4016 227.3 63.0015 220.7 63.0015 212.7V143.1H71.3015V183.3C71.3015 191.3 77.9016 197.9 85.9016 197.9C93.9016 197.9 100.501 191.3 100.501 183.3V143.1H268.802C294.502 143.1 315.602 122 315.602 96.3004C315.702 81.7004 308.801 68.6004 298.201 60.0004Z" fill="#EB7450"/>
<path d="M48.3 237.5C34.7 237.5 23.7 226.4 23.7 212.9V142.5C8.99995 131.9 0 114.7 0 96.4C0 75.3 11.6001 56.3 29.9001 46.4C35.7001 19.6 59.6001 0 87.6001 0C104.2 0 119.9 7.1 131 19C140.5 10.9 152.6 6.30005 165.4 6.30005C181.3 6.30005 195.9 13.3 205.8 25C216.9 13.2 232.4 6.30005 249.1 6.30005C278 6.30005 302.4 27 307.5 55C319.1 65.8 325.6 80.7 325.6 96.5C325.6 127.8 300.1 153.3 268.8 153.3H110.5V183.5C110.5 197.1 99.4001 208.1 85.9001 208.1C81.2001 208.1 76.8 206.8 73 204.5V213C73 226.4 61.9 237.5 48.3 237.5ZM87.7 19.9C67.9 19.9 51.2001 34.7 48.9001 54.3C48.5001 57.9 46.1 61 42.8 62.3C29 68.1 20 81.4 20 96.3C20 109.4 27.1001 121.7 38.6001 128.3C41.7001 130.1 43.6001 133.4 43.6001 137V212.8C43.6001 215.3 45.7 217.4 48.2 217.4C50.7 217.4 52.8 215.3 52.8 212.8V143.2C52.8 137.7 57.3 133.2 62.8 133.2H71.1001C76.6001 133.2 81.1001 137.7 81.1001 143.2V183.4C81.1001 185.9 83.2 188 85.7 188C88.2 188 90.3 185.9 90.3 183.4V143.2C90.3 137.7 94.8 133.2 100.3 133.2H268.6C288.9 133.2 305.4 116.7 305.4 96.4C305.4 85.3 300.4 74.9 291.6 67.8C289.6 66.1 288.2 63.8001 288 61.2001C285.7 41.3001 268.9 26.3 248.9 26.3C234.1 26.3 220.6 34.5001 213.8 47.7001C212 51.2001 208.4 53.3001 204.4 53.1001C200.5 52.9001 197 50.5 195.6 46.8C190.6 34.3 178.6 26.2001 165.1 26.2001C154.4 26.2001 144.3 31.5 138.1 40.3C136.1 43.1 132.9 44.7001 129.5 44.6001C126.1 44.5001 123 42.6001 121.3 39.6001C114.6 27.5001 101.6 19.9 87.7 19.9Z" fill="black"/>
</svg>
