<svg width="1753" height="1753" viewBox="0 0 1753 1753" fill="none" xmlns="http://www.w3.org/2000/svg">
<path d="M144.109 179.457C145.795 182.378 148.038 184.939 150.713 186.992C153.388 189.046 156.441 190.553 159.698 191.427C162.955 192.3 166.352 192.524 169.695 192.085C173.039 191.646 176.263 190.553 179.184 188.868C182.105 187.182 184.665 184.939 186.719 182.264C188.772 179.589 190.279 176.536 191.153 173.279C192.027 170.022 192.25 166.625 191.811 163.282C191.372 159.938 190.279 156.714 188.594 153.793L162.519 108.625C160.834 105.704 158.59 103.143 155.915 101.09C153.241 99.036 150.188 97.5293 146.931 96.6554C140.353 94.8907 133.344 95.8112 127.445 99.2145C124.524 100.9 121.964 103.144 119.91 105.818C117.856 108.493 116.35 111.546 115.476 114.803C113.711 121.38 114.631 128.39 118.035 134.289L144.109 179.457ZM773.358 570.441C780.165 570.441 786.692 567.737 791.505 562.924C796.318 558.111 799.022 551.583 799.022 544.777V441.436C799.022 434.63 796.318 428.102 791.505 423.289C786.692 418.476 780.165 415.772 773.358 415.772C766.551 415.772 760.024 418.476 755.211 423.289C750.398 428.102 747.694 434.63 747.694 441.436V544.777C747.694 551.583 750.398 558.111 755.211 562.924C760.024 567.737 766.551 570.441 773.358 570.441ZM1483.98 137.539C1486.9 139.23 1490.12 140.328 1493.46 140.77C1496.8 141.212 1500.2 140.99 1503.45 140.115C1506.71 139.241 1509.76 137.732 1512.43 135.675C1515.1 133.618 1517.34 131.054 1519.02 128.129L1570.65 38.5104C1572.34 35.5895 1573.43 32.3653 1573.87 29.0219C1574.31 25.6785 1574.09 22.2813 1573.21 19.0244C1572.34 15.7675 1570.83 12.7145 1568.78 10.0399C1566.73 7.36526 1564.17 5.12132 1561.24 3.43619C1558.32 1.75107 1555.1 0.657751 1551.76 0.218672C1548.41 -0.220407 1545.02 0.00334817 1541.76 0.877162C1538.5 1.75098 1535.45 3.25774 1532.77 5.31141C1530.1 7.36509 1527.86 9.92546 1526.17 12.8463L1474.57 102.465C1472.88 105.386 1471.79 108.61 1471.35 111.954C1470.91 115.298 1471.13 118.695 1472 121.953C1472.88 125.21 1474.39 128.263 1476.44 130.938C1478.49 133.612 1481.06 135.856 1483.98 137.539ZM1572.95 188.868C1575.86 190.558 1579.09 191.656 1582.43 192.098C1585.77 192.54 1589.17 192.318 1592.42 191.443C1595.68 190.569 1598.73 189.06 1601.4 187.003C1604.07 184.946 1606.31 182.382 1607.99 179.457L1634.06 134.289C1637.47 128.39 1638.39 121.38 1636.62 114.803C1634.86 108.225 1630.55 102.618 1624.65 99.2145C1618.75 95.8112 1611.74 94.8907 1605.17 96.6554C1598.59 98.4202 1592.98 102.726 1589.58 108.625L1563.5 153.793C1561.81 156.712 1560.72 159.934 1560.28 163.277C1559.83 166.619 1560.05 170.016 1560.92 173.273C1561.79 176.53 1563.3 179.584 1565.35 182.26C1567.4 184.936 1569.96 187.181 1572.88 188.868H1572.95ZM77.5882 243.618C82.0926 243.608 86.5153 242.414 90.413 240.156C94.3106 237.898 97.5463 234.655 99.7957 230.752C102.045 226.85 103.229 222.424 103.229 217.92C103.229 213.415 102.045 208.99 99.7961 205.087L47.9205 115.503C46.2354 112.582 43.9914 110.021 41.3168 107.968C38.6422 105.914 35.5892 104.407 32.3323 103.533C29.0754 102.66 25.6782 102.436 22.3348 102.875C18.9914 103.314 15.7672 104.407 12.8463 106.092C9.9254 107.778 7.36503 110.022 5.31135 112.696C3.25767 115.371 1.75091 118.424 0.877099 121.681C0.00328559 124.938 -0.220469 128.335 0.21861 131.678C0.657689 135.022 1.751 138.246 3.43613 141.167L55.2091 230.786C57.4586 234.696 60.6991 237.944 64.604 240.203C68.5089 242.462 72.9402 243.651 77.4513 243.652L77.5882 243.618ZM978.671 570.441C985.477 570.441 992.005 567.737 996.818 562.924C1001.63 558.111 1004.33 551.583 1004.33 544.777V441.436C1004.33 434.63 1001.63 428.102 996.818 423.289C992.005 418.476 985.477 415.772 978.671 415.772C971.864 415.772 965.336 418.476 960.523 423.289C955.71 428.102 953.006 434.63 953.006 441.436V544.777C953.006 551.583 955.71 558.111 960.523 562.924C965.336 567.737 971.864 570.441 978.671 570.441ZM876.014 570.441C882.821 570.441 889.349 567.737 894.162 562.924C898.975 558.111 901.678 551.583 901.678 544.777V492.764C901.678 485.958 898.975 479.43 894.162 474.617C889.349 469.804 882.821 467.1 876.014 467.1C869.208 467.1 862.68 469.804 857.867 474.617C853.054 479.43 850.35 485.958 850.35 492.764V544.777C850.35 551.583 853.054 558.111 857.867 562.924C862.68 567.737 869.208 570.441 876.014 570.441ZM233.01 128.129C234.695 131.05 236.939 133.611 239.613 135.664C242.288 137.718 245.341 139.225 248.598 140.098C251.855 140.972 255.252 141.196 258.595 140.757C261.939 140.318 265.163 139.225 268.084 137.539C271.005 135.854 273.565 133.61 275.619 130.936C277.673 128.261 279.179 125.208 280.053 121.951C280.927 118.694 281.151 115.297 280.712 111.954C280.273 108.61 279.179 105.386 277.494 102.465L225.858 12.8463C222.455 6.94735 216.847 2.64191 210.27 0.877163C203.692 -0.887583 196.683 0.0329273 190.784 3.43619C184.885 6.83946 180.579 12.4467 178.815 19.0244C177.05 25.6021 177.97 32.6114 181.374 38.5104L233.01 128.129ZM1554.57 220.52C1520.23 200.613 1482.24 187.811 1442.86 182.873C1403.47 177.935 1363.5 180.963 1325.31 191.776C1247.63 213.596 1181.57 264.924 1141.23 334.796C1100.89 404.667 1089.48 487.543 1109.42 565.719C1125.72 629.628 1162.81 686.306 1214.84 726.836C1266.87 767.367 1330.9 789.45 1396.86 789.612C1424.37 789.652 1451.76 785.933 1478.26 778.559C1555.95 756.754 1622.02 705.431 1662.37 635.556C1702.72 565.681 1714.14 482.798 1694.18 404.617C1684.43 366.155 1667.04 330.046 1643.05 298.434C1619.07 266.821 1588.98 240.349 1554.57 220.588V220.52ZM1617.74 609.827C1584.35 668.242 1529.22 711.094 1464.37 729.045C1432.77 737.945 1399.7 740.429 1367.12 736.351C1334.54 732.272 1303.1 721.713 1274.67 705.297C1246.23 688.88 1221.37 666.937 1201.55 640.762C1181.72 614.586 1167.34 584.708 1159.24 552.887C1142.67 487.734 1152.2 418.683 1185.82 360.461C1219.43 302.238 1274.46 259.45 1339.17 241.222C1361.06 235.147 1383.68 232.062 1406.4 232.052C1461.02 232.181 1514.03 250.471 1557.11 284.042C1600.18 317.613 1630.87 364.557 1644.33 417.483C1661.16 482.618 1651.61 551.766 1617.74 609.895V609.827ZM1570.38 586.147L1428.2 548.917L1430.49 547.617C1452.62 534.577 1469.69 514.447 1478.93 490.491C1488.18 466.535 1489.07 440.158 1481.45 415.635L1501.09 404.275C1507.45 400.477 1512.05 394.33 1513.92 387.162C1515.78 379.995 1514.75 372.382 1511.05 365.969C1507.34 359.556 1501.26 354.857 1494.13 352.888C1486.99 350.919 1479.36 351.837 1472.89 355.444L1452.67 367.147C1445.15 359.511 1436.6 352.958 1427.28 347.677L1458.08 329.849C1464.43 326.051 1469.04 319.904 1470.9 312.737C1472.77 305.569 1471.74 297.957 1468.03 291.543C1464.33 285.13 1458.25 280.431 1451.11 278.462C1443.97 276.493 1436.35 277.411 1429.88 281.019L1314.87 347.437L1271.41 372.52L1254.3 382.375C1247.83 386.127 1243.12 392.297 1241.19 399.526C1239.27 406.755 1240.3 414.451 1244.05 420.922C1247.81 427.393 1253.98 432.108 1261.21 434.03C1268.43 435.952 1276.13 434.923 1282.6 431.171L1299.71 421.316L1343.17 396.233C1352.05 391.163 1362.11 388.548 1372.34 388.656C1382.56 388.764 1392.57 391.592 1401.34 396.849L1297.56 456.766C1291.2 460.564 1286.59 466.711 1284.73 473.878C1282.86 481.046 1283.89 488.658 1287.6 495.072C1291.3 501.485 1297.38 506.184 1304.52 508.153C1311.66 510.122 1319.28 509.204 1325.75 505.596L1430.84 444.927C1431.59 455.649 1429.33 466.368 1424.32 475.877C1419.3 485.387 1411.74 493.309 1402.47 498.753L1343.31 532.971C1339.49 534.686 1336.12 537.252 1333.45 540.473C1330.78 543.694 1328.88 547.484 1327.91 551.552C1326.18 558.808 1327.36 566.451 1331.2 572.847C1335.03 579.242 1341.22 583.881 1348.44 585.771L1557.45 640.521C1560.98 641.456 1564.66 641.677 1568.27 641.169C1571.89 640.661 1575.36 639.435 1578.5 637.563C1581.63 635.692 1584.36 633.212 1586.52 630.27C1588.68 627.329 1590.23 623.985 1591.08 620.434C1592.79 613.157 1591.57 605.501 1587.71 599.106C1583.84 592.711 1577.62 588.084 1570.38 586.216V586.147ZM1739.18 106.092C1733.28 102.695 1726.27 101.777 1719.7 103.541C1713.12 105.306 1707.52 109.608 1704.11 115.503L1652.37 205.122C1650.68 208.042 1649.59 211.267 1649.15 214.61C1648.71 217.953 1648.94 221.351 1649.81 224.608C1651.57 231.185 1655.88 236.792 1661.78 240.196C1664.7 241.881 1667.92 242.974 1671.27 243.413C1674.61 243.852 1678.01 243.629 1681.27 242.755C1687.84 240.99 1693.45 236.685 1696.85 230.786L1748.59 141.167C1751.99 135.266 1752.91 128.259 1751.14 121.683C1749.38 115.107 1745.08 109.499 1739.18 106.092ZM497.623 637.818C500.845 635.957 503.654 633.458 505.878 630.476C508.102 627.493 509.694 624.088 510.558 620.469C512.286 613.213 511.105 605.57 507.267 599.174C503.43 592.779 497.242 588.14 490.027 586.25L347.882 549.02L350.141 547.72C372.273 534.689 389.353 514.562 398.608 490.604C407.863 466.646 408.751 440.264 401.126 415.738L420.768 404.377C427.125 400.579 431.734 394.433 433.597 387.265C435.46 380.098 434.428 372.485 430.725 366.072C427.022 359.659 420.944 354.96 413.805 352.991C406.666 351.021 399.039 351.94 392.572 355.547L372.314 367.25C364.798 359.624 356.266 353.072 346.958 347.779L377.755 329.951C384.113 326.153 388.721 320.007 390.584 312.839C392.447 305.672 391.415 298.059 387.712 291.646C384.009 285.233 377.931 280.534 370.792 278.565C363.653 276.595 356.026 277.514 349.559 281.121L234.686 347.506L191.229 372.588L174.119 382.443C168.07 386.387 163.764 392.501 162.089 399.526C160.415 406.551 161.499 413.95 165.119 420.199C168.74 426.447 174.619 431.069 181.546 433.11C188.473 435.151 195.919 434.457 202.35 431.171L219.459 421.316L262.917 396.233C271.793 391.156 281.862 388.537 292.086 388.645C302.311 388.753 312.322 391.585 321.089 396.849L217.132 456.869C210.775 460.667 206.167 466.814 204.304 473.981C202.441 481.148 203.472 488.761 207.175 495.174C210.878 501.587 216.956 506.286 224.095 508.256C231.234 510.225 238.861 509.307 245.328 505.699L350.448 445.029C351.197 455.756 348.935 466.479 343.917 475.989C338.899 485.499 331.324 493.419 322.047 498.855L262.917 533.074C259.101 534.789 255.729 537.355 253.06 540.576C250.39 543.797 248.495 547.587 247.518 551.655C245.8 558.91 246.985 566.549 250.821 572.942C254.657 579.335 260.84 583.976 268.05 585.874L477.058 640.624C484.016 642.424 491.402 641.416 497.623 637.818ZM354.931 789.68C420.887 789.518 484.917 767.435 536.951 726.905C588.984 686.375 626.068 629.697 642.369 565.787C662.316 487.625 650.912 404.761 610.595 334.892C570.277 265.023 504.239 213.686 426.585 191.845C388.421 181.139 348.501 178.173 309.173 183.12C269.845 188.068 231.904 200.829 197.58 220.653C163.256 240.477 133.242 266.964 109.304 298.557C85.3652 330.149 67.9854 366.21 58.1861 404.617C38.2354 482.798 49.6533 565.681 90 635.556C130.347 705.431 196.422 756.754 274.106 778.559C300.421 785.906 327.61 789.647 354.931 789.68ZM134.289 609.895C100.421 551.766 90.8659 482.618 107.701 417.483C121.163 364.557 151.848 317.613 194.922 284.042C237.996 250.471 291.013 232.181 345.624 232.052C368.34 232.085 390.947 235.193 412.829 241.291C477.539 259.519 532.567 302.306 566.179 360.529C599.791 418.752 609.326 487.802 592.751 552.955C584.656 584.776 570.272 614.655 550.449 640.83C530.625 667.005 505.763 688.948 477.327 705.365C448.891 721.782 417.456 732.341 384.876 736.419C352.296 740.498 319.228 738.014 287.623 729.113C222.787 711.154 167.675 668.303 134.289 609.895ZM1464.58 992.358H1169.88C1174.43 970.985 1176.73 949.194 1176.73 927.342C1177.06 846.59 1145.46 768.98 1088.82 711.422C1061.12 683.047 1028.03 660.498 991.492 645.102C954.951 629.707 915.7 621.776 876.049 621.776C836.397 621.776 797.146 629.707 760.605 645.102C724.065 660.498 690.973 683.047 663.276 711.422C606.623 768.974 575.013 846.585 575.334 927.342C575.334 949.194 577.628 970.985 582.178 992.358H287.452C271.575 992.376 256.355 998.691 245.128 1009.92C233.902 1021.14 227.587 1036.36 227.569 1052.24V1137.79C227.593 1152.17 232.792 1166.07 242.216 1176.94C251.64 1187.81 264.66 1194.92 278.897 1196.99V1623.69C278.933 1657.72 292.464 1690.33 316.521 1714.39C340.578 1738.45 373.196 1751.98 407.217 1752.01H1344.81C1378.83 1751.98 1411.45 1738.45 1435.51 1714.39C1459.56 1690.33 1473.1 1657.72 1473.13 1623.69V1196.99C1487.37 1194.92 1500.39 1187.81 1509.81 1176.94C1519.24 1166.07 1524.44 1152.17 1524.46 1137.79V1052.24C1524.44 1036.36 1518.13 1021.14 1506.9 1009.92C1495.67 998.691 1480.45 992.376 1464.58 992.358ZM699.856 747.42C722.772 723.878 750.173 705.166 780.44 692.389C810.708 679.612 843.229 673.03 876.083 673.03C908.937 673.03 941.457 679.612 971.725 692.389C1001.99 705.166 1029.39 723.878 1052.31 747.42C1099.44 795.409 1125.7 860.079 1125.37 927.342C1125.38 949.274 1122.62 971.12 1117.15 992.358H853.19L842.138 981.442H844.773C870.45 981.224 895.301 972.334 915.29 956.214C935.279 940.095 949.234 917.693 954.888 892.645H977.576C985.054 892.645 992.225 889.674 997.513 884.386C1002.8 879.098 1005.77 871.926 1005.77 864.448C1005.77 856.97 1002.8 849.798 997.513 844.511C992.225 839.223 985.054 836.252 977.576 836.252H954.204C951.51 825.883 947.399 815.934 941.988 806.687H977.576C985.054 806.687 992.225 803.716 997.513 798.429C1002.8 793.141 1005.77 785.969 1005.77 778.491C1005.77 771.013 1002.8 763.841 997.513 758.553C992.225 753.265 985.054 750.295 977.576 750.295H774.898C767.42 750.295 760.248 753.265 754.96 758.553C749.672 763.841 746.702 771.013 746.702 778.491C746.702 785.969 749.672 793.141 754.96 798.429C760.248 803.716 767.42 806.687 774.898 806.687H844.773C854.979 806.74 864.987 809.506 873.772 814.701C882.557 819.896 889.803 827.334 894.766 836.252H775C767.522 836.252 760.351 839.223 755.063 844.511C749.775 849.798 746.804 856.97 746.804 864.448C746.804 871.926 749.775 879.098 755.063 884.386C760.351 889.674 767.522 892.645 775 892.645H896.375C891.666 902.311 884.348 910.467 875.247 916.193C866.147 921.92 855.627 924.987 844.875 925.05H776.438C772.278 924.627 768.076 925.163 764.155 926.616C760.234 928.069 756.699 930.401 753.819 933.433C748.687 938.841 745.872 946.04 745.974 953.494C746.077 960.949 749.088 968.068 754.367 973.332L773.632 992.358H634.841C629.398 971.115 626.651 949.272 626.662 927.342C626.364 860.06 652.674 795.387 699.856 747.42ZM1421.87 1623.69C1421.85 1644.12 1413.73 1663.7 1399.28 1678.14C1384.83 1692.58 1365.24 1700.69 1344.81 1700.69H407.217C386.803 1700.67 367.231 1692.55 352.796 1678.12C338.361 1663.68 330.243 1644.11 330.225 1623.69V1197.67H1421.8L1421.87 1623.69ZM1473.2 1137.79C1473.2 1138.92 1472.98 1140.04 1472.54 1141.08C1472.11 1142.12 1471.47 1143.07 1470.67 1143.86C1469.87 1144.66 1468.92 1145.29 1467.87 1145.71C1466.83 1146.14 1465.71 1146.35 1464.58 1146.34H287.452C285.183 1146.34 283.007 1145.44 281.403 1143.84C279.798 1142.23 278.897 1140.06 278.897 1137.79V1052.24C278.897 1049.97 279.798 1047.8 281.403 1046.19C283.007 1044.59 285.183 1043.69 287.452 1043.69H1464.58C1466.85 1043.69 1469.02 1044.59 1470.63 1046.19C1472.23 1047.8 1473.13 1049.97 1473.13 1052.24L1473.2 1137.79ZM658.794 1551.83H1093.37C1109.24 1551.8 1124.44 1545.48 1135.65 1534.25C1146.86 1523.03 1153.17 1507.82 1153.19 1491.95V1406.4C1153.17 1390.53 1146.85 1375.31 1135.63 1364.08C1124.4 1352.86 1109.18 1346.54 1093.3 1346.52H658.725C642.849 1346.54 627.628 1352.86 616.402 1364.08C605.175 1375.31 598.861 1390.53 598.842 1406.4V1491.95C598.861 1507.83 605.175 1523.05 616.402 1534.28C627.628 1545.5 642.849 1551.82 658.725 1551.83H658.794ZM650.171 1406.4C650.171 1404.14 651.072 1401.96 652.676 1400.36C654.28 1398.75 656.456 1397.85 658.725 1397.85H1093.3C1095.57 1397.85 1097.75 1398.75 1099.35 1400.36C1100.96 1401.96 1101.86 1404.14 1101.86 1406.4V1491.95C1101.86 1494.22 1100.96 1496.4 1099.35 1498C1097.75 1499.61 1095.57 1500.51 1093.3 1500.51H658.725C656.456 1500.51 654.28 1499.61 652.676 1498C651.072 1496.4 650.171 1494.22 650.171 1491.95V1406.4Z" fill="#E54047"/>
</svg>
