<svg width="1000" height="1000" viewBox="0 0 1000 1000" fill="none" xmlns="http://www.w3.org/2000/svg">
<rect width="1000" height="1000" fill="#341A34"/>
<path d="M267.213 189.671C272.765 188.56 278.775 189.177 284.422 189.121C434.001 189.251 583.646 189.009 733.226 189.233C733.515 215.012 733.105 240.781 733.394 266.56C772.217 266.84 811.049 266.448 849.881 266.728C850.03 292.498 850.03 318.286 849.872 344.046C836.872 344.335 823.862 343.943 810.853 344.233C810.629 358.518 810.834 372.803 810.769 387.089C810.834 515.582 810.648 644.121 810.853 772.605C823.872 772.894 836.872 772.502 849.881 772.791C850.04 785.49 850.04 798.188 849.881 810.895C772.17 811.035 694.45 811.035 616.739 810.895C616.58 798.188 616.58 785.49 616.739 772.791C629.748 772.502 642.748 772.894 655.767 772.605C655.991 758.319 655.786 744.034 655.851 729.749C655.786 640.153 655.972 550.539 655.767 460.943C642.758 460.653 629.758 461.045 616.748 460.756C616.468 448.058 616.842 435.36 616.562 422.662C603.562 422.372 590.562 422.764 577.552 422.475C577.263 409.46 577.655 396.453 577.366 383.438C525.795 383.289 474.205 383.298 422.634 383.438C422.345 396.453 422.737 409.46 422.448 422.475C409.438 422.764 396.438 422.372 383.438 422.662C383.158 435.36 383.532 448.058 383.252 460.756C370.242 461.045 357.242 460.653 344.233 460.943C344.009 475.228 344.214 489.513 344.149 503.799C344.214 593.394 344.028 683.009 344.233 772.605C357.252 772.894 370.252 772.502 383.261 772.791C383.42 785.49 383.42 798.188 383.261 810.895C305.55 811.035 227.83 811.035 150.119 810.895C149.96 798.188 149.96 785.49 150.119 772.791C163.128 772.502 176.128 772.894 189.147 772.605C189.371 758.319 189.166 744.034 189.231 729.749C189.166 601.256 189.352 472.716 189.147 344.233C176.138 343.943 163.128 344.335 150.119 344.046C149.97 318.286 149.97 292.498 150.128 266.728C188.951 266.448 227.774 266.84 266.606 266.56C266.811 247.289 266.643 228.018 266.681 208.756C266.783 202.482 266.027 195.843 267.213 189.671Z" fill="#A0A3AE"/>
</svg>
