<svg width="2544" height="1455" viewBox="0 0 2544 1455" fill="none" xmlns="http://www.w3.org/2000/svg">
<path d="M795.776 913.975C1004.18 764.372 1295.37 880.948 1368.85 786.608C1371.87 782.684 1370.81 776.961 1366.64 774.263C1351.11 764.044 1335.67 753.826 1320.06 743.852C1219.69 679.841 1134.86 599.317 1080.84 492.959C1050.19 432.545 1001.16 412.598 942.476 400.09C935.53 398.619 928.746 396.33 922.045 393.795L923.271 364.937L923.843 364.774C930.79 362.73 932.261 353.574 926.376 349.486C914.853 341.475 903.002 333.218 891.07 324.879C886.575 321.773 886.085 315.233 890.089 311.554C896.873 305.177 903.329 299.128 908.805 293.978C911.42 291.525 912.238 287.683 910.766 284.331C906.68 274.766 901.94 263.893 897.118 252.693C895.075 247.87 897.772 242.311 902.839 241.003C919.756 236.425 936.837 230.376 953.346 231.684C969.446 232.91 985.056 241.412 999.359 247.952C1003.85 249.996 1009.17 247.788 1010.96 243.129C1014.07 234.872 1017.26 226.615 1020.36 218.358C1022.16 213.698 1027.47 211.491 1031.97 213.617C1044.55 219.421 1057.38 224.898 1068.83 232.419C1081.17 240.513 1094.33 250.241 1101.84 262.422C1160.93 358.888 1256.8 411.699 1346.78 471.622C1353.56 476.118 1359.77 481.514 1366.39 486.174C1416.17 521.49 1464.96 558.441 1516.28 591.387C1530.58 600.543 1546.6 606.92 1562.87 612.969L1578.89 589.343C1569.81 579.206 1560.74 569.069 1551.67 559.014C1462.91 460.34 1437.58 346.462 1483.67 222.773C1573.82 -19.2913 1891 -76.4351 2078.73 113.308C2154.73 190.154 2183.91 282.451 2169.85 389.136C2166.58 414.151 2163.4 435.652 2200.34 442.764C2234.99 449.386 2238.26 482.168 2211.86 508.083C2204.1 515.686 2194.45 526.15 2194.04 535.633C2189.47 637.985 2129.56 700.933 2042.44 737.884C2002.39 754.888 1958.34 762.328 1914.95 771.32C1906.12 773.119 1905.79 785.627 1914.46 788.079C1949.76 797.971 1986.29 805.002 2022.83 805.656C2111.91 807.209 2201.24 803.939 2290.24 799.116C2306.34 798.216 2323.5 782.765 2336.66 770.339C2376.54 732.897 2413.65 692.186 2454.67 656.052C2461.54 650.002 2476.25 652.945 2491.78 654.335C2497.5 654.825 2501.01 660.875 2498.89 666.189C2495.29 675.1 2492.51 681.967 2490.31 687.362C2488.34 692.104 2490.96 697.418 2495.86 698.889L2539.18 711.397L2543.75 735.677C2537.63 740.337 2531.58 745.078 2525.45 749.738L2530.02 750.556C2534.11 751.291 2537.05 754.888 2537.05 759.058V779.577C2537.05 782.03 2535.5 783.91 2533.62 785.463C2533.05 785.954 2532.64 786.689 2532.39 787.67C2510.25 802.549 2488.1 817.346 2465.87 832.225L2466.44 831.734C2463.01 834.268 2459.58 836.721 2456.14 839.255L2456.96 838.519C2453.94 841.544 2450.99 844.569 2447.97 847.594L2448.79 846.695C2444.54 850.537 2440.21 854.297 2435.96 858.14L2434.81 859.121C2430.64 862.391 2426.48 865.579 2422.31 868.849L2421 869.993C2408.5 880.212 2397.54 894.11 2383.24 900.16C2311 930.653 2239.57 964.334 2164.79 987.061C2049.39 1022.21 1929.09 1023.6 1809.36 1020.91C1785.9 1020.41 1772.66 1028.59 1760.32 1047.8C1734 1088.84 1708.83 1131.6 1676.3 1167.48C1493.4 1369.57 1261.29 1429.74 998.296 1397.29C956.697 1392.14 917.141 1386.49 876.605 1411.1C846.611 1429.33 809.343 1437.83 774.119 1444.95C595.954 1480.84 447.047 1418.87 312.116 1307.69C286.453 1286.51 256.051 1271.8 223.278 1265.83C173.016 1256.67 121.201 1256.1 70.0402 1252.1C42.253 1249.89 13.2399 1247.44 3.35088 1215.88C-7.02846 1182.77 4.24987 1152.2 31.0563 1132.25C80.6647 1095.46 130.927 1058.67 184.54 1028.26C230.47 1002.18 304.597 1015.76 335.326 1051.56C394.088 1119.82 469.277 1133.15 551.739 1117.7C575.277 1113.28 603.227 1100.29 616.958 1081.97C667.056 1015.51 735.462 943.896 795.204 914.221M2069.98 432.218C2074.07 434.589 2079.22 433.363 2081.75 429.357C2095.32 407.693 2102.76 386.438 2083.14 365.346C2077.34 359.133 2058.46 357.171 2051.02 361.831C2029.45 375.483 2020.29 394.695 2022.09 421.182C2022.58 428.539 2031.65 431.891 2036.8 426.577C2046.94 416.195 2058.62 425.515 2069.98 432.218Z" fill="#67CBA0"/>
</svg>
