<svg width="2545" height="1455" viewBox="0 0 2545 1455" fill="none" xmlns="http://www.w3.org/2000/svg">
<path d="M796.245 913.835C1004.65 764.231 1295.84 880.807 1369.32 786.467C1372.34 782.543 1371.28 776.82 1367.11 774.123C1351.58 763.904 1336.13 753.685 1320.52 743.711C1220.16 679.701 1135.33 599.176 1081.31 492.818C1050.66 432.405 1001.63 412.457 942.945 399.949C935.998 398.478 929.215 396.189 922.513 393.655L923.739 364.797L924.311 364.633C931.258 362.589 932.729 353.433 926.845 349.346C915.321 341.334 903.471 333.077 891.539 324.739C887.044 321.632 886.554 315.092 890.558 311.413C897.342 305.037 903.798 298.987 909.274 293.837C911.889 291.384 912.706 287.542 911.235 284.19C907.149 274.626 902.409 263.753 897.587 252.553C895.544 247.73 898.241 242.171 903.308 240.862C920.225 236.284 937.306 230.235 953.815 231.543C969.915 232.769 985.525 241.271 999.827 247.811C1004.32 249.855 1009.63 247.648 1011.43 242.988C1014.54 234.731 1017.73 226.474 1020.83 218.218C1022.63 213.558 1027.94 211.35 1032.44 213.476C1045.02 219.28 1057.85 224.758 1069.3 232.279C1081.64 240.372 1094.79 250.1 1102.31 262.281C1161.4 358.747 1257.27 411.558 1347.25 471.481C1354.03 475.978 1360.24 481.373 1366.86 486.033C1416.64 521.349 1465.43 558.301 1516.75 591.246C1531.05 600.402 1547.07 606.779 1563.34 612.828L1579.35 589.202C1570.28 579.065 1561.21 568.928 1552.14 558.873C1463.38 460.2 1438.05 346.321 1484.14 222.632C1574.29 -19.4319 1891.47 -76.5757 2079.2 113.168C2155.2 190.014 2184.38 282.31 2170.32 388.995C2167.05 414.011 2163.87 435.511 2200.81 442.623C2235.46 449.245 2238.73 482.027 2212.33 507.942C2204.57 515.545 2194.92 526.009 2194.51 535.492C2189.94 637.844 2130.03 700.792 2042.91 737.744C2002.86 754.748 1958.81 762.187 1915.42 771.18C1906.59 772.978 1906.26 785.486 1914.93 787.939C1950.23 797.83 1986.76 804.861 2023.3 805.515C2112.38 807.068 2201.71 803.798 2290.71 798.975C2306.81 798.076 2323.97 782.625 2337.13 770.199C2377.01 732.757 2414.11 692.045 2455.14 655.911C2462.01 649.862 2476.72 652.805 2492.25 654.194C2497.97 654.685 2501.48 660.734 2499.36 666.048C2495.76 674.959 2492.98 681.826 2490.77 687.222C2488.81 691.963 2491.43 697.277 2496.33 698.748L2539.65 711.256L2544.22 735.536C2538.09 740.196 2532.05 744.938 2525.92 749.597L2530.49 750.415C2534.58 751.151 2537.52 754.748 2537.52 758.917V779.437C2537.52 781.889 2535.97 783.769 2534.09 785.323C2533.52 785.813 2533.11 786.549 2532.86 787.53C2510.72 802.408 2488.57 817.205 2466.34 832.084L2466.91 831.593C2463.48 834.128 2460.04 836.58 2456.61 839.115L2457.43 838.379C2454.41 841.404 2451.46 844.428 2448.44 847.453L2449.26 846.554C2445.01 850.396 2440.68 854.157 2436.43 857.999L2435.28 858.98C2431.11 862.25 2426.95 865.438 2422.78 868.708L2421.47 869.853C2408.97 880.072 2398.01 893.969 2383.71 900.019C2311.46 930.512 2240.04 964.193 2165.26 986.92C2049.86 1022.07 1929.55 1023.46 1809.82 1020.76C1786.37 1020.27 1773.13 1028.45 1760.79 1047.66C1734.47 1088.7 1709.3 1131.46 1676.77 1167.34C1493.87 1369.43 1261.76 1429.6 998.765 1397.15C957.166 1392 917.61 1386.35 877.073 1410.96C847.079 1429.19 809.812 1437.69 774.588 1444.81C596.423 1480.69 447.516 1418.73 312.584 1307.55C286.922 1286.37 256.52 1271.66 223.747 1265.69C173.485 1256.53 121.67 1255.96 70.5089 1251.96C42.7217 1249.75 13.7086 1247.3 3.81963 1215.74C-6.55971 1182.63 4.71862 1152.06 31.5251 1132.11C81.1334 1095.32 131.396 1058.53 185.009 1028.12C230.939 1002.04 305.066 1015.61 335.795 1051.42C394.557 1119.68 469.746 1133.01 552.208 1117.56C575.746 1113.14 603.696 1100.14 617.426 1081.83C667.525 1015.37 735.931 943.756 795.673 914.08M2070.45 432.078C2074.54 434.448 2079.69 433.222 2082.22 429.216C2095.79 407.552 2103.22 386.297 2083.61 365.205C2077.81 358.992 2058.93 357.03 2051.49 361.69C2029.92 375.343 2020.76 394.554 2022.56 421.041C2023.05 428.399 2032.12 431.751 2037.27 426.437C2047.4 416.054 2059.09 425.374 2070.45 432.078Z" fill="white"/>
</svg>
